# xmcd CD database file
#
# Track frame offsets:
#	182
#	16522
#	33847
#	49552
#	64427
#	82227
#	97932
#	112930
#	129967
#	146145
#
# Disc length: 2176 seconds
#
# Revision: 5
# Processed by: cddbd v1.5.2PL0 Copyright (c) Steve Scherf et al.
# Submitted via: CDex 1.51
#
DISCID=79087e0a
DTITLE=Chad Brock - Chad Brock
DYEAR=1998
DGENRE=Country
TTITLE0=Going The Distance
TTITLE1=Evangeline
TTITLE2=You Made A Liar Out Of Me
TTITLE3=Bingo Bull's-Eye
TTITLE4=Ordinary Life
TTITLE5=If It Were Up To Me
TTITLE6='Til I Fell For You
TTITLE7=Lightning Does The Work
TTITLE8=Unbreak My Heart
TTITLE9=I Wonder Where Love Goes
EXTD=YEAR: 1998
EXTT0=
EXTT1=
EXTT2=
EXTT3=
EXTT4=
EXTT5=
EXTT6=
EXTT7=
EXTT8=
EXTT9=
PLAYORDER=
